<svg width="154" height="76" viewBox="0 0 154 76" fill="none" xmlns="http://www.w3.org/2000/svg">
<path d="M27.6094 32.6094C25.9688 31.0625 23.7656 29.9844 21.2813 29.9844C19.4063 29.9844 16.7344 31.0625 16.4063 33.2656C16.0313 35.5625 18.6563 36.4531 20.3438 37.0156L22.8281 37.8125C28.0313 39.4531 31.7812 42.2188 30.7969 48.5938C30.1875 52.5313 28.5938 56.5625 25.0781 59.2344C21.6094 61.8594 17.3437 62.9375 13.3594 62.9375C8.4375 62.9375 3.84375 61.25 0.28125 58.4375L5.90625 50.1875C8.10937 52.4375 10.8281 54.2656 14.2969 54.2656C16.6875 54.2656 19.4063 53.0469 19.875 50.2813C20.3438 47.4219 16.5 46.3906 14.3906 45.7813C8.29688 43.9531 4.35937 42.2656 5.53125 34.625C6.79687 26.6094 13.2656 21.4062 21.1406 21.4062C25.0781 21.4062 29.7187 22.6719 32.9062 24.6406L27.6094 32.6094Z" fill="#2F87DB"/>
<path d="M47.2031 38.0937H47.2969C49.4531 35.4219 52.8281 34.1562 55.9688 34.1562C63.9375 34.1562 68.3906 40.8594 67.1719 48.5469C65.9531 56.2812 59.4844 62.7969 51.5625 62.7969C48.5156 62.7969 45.5156 61.7188 43.8281 59.3281L41.2969 75.3125H31.875L38.2031 35.0469H47.6719L47.2031 38.0937ZM45.2344 48.5C44.7188 51.9219 46.5 54.5 50.3438 54.5C54.1875 54.5 56.8125 51.875 57.375 48.5C57.8906 45.2187 56.1094 42.4062 52.2656 42.4062C48.4219 42.4531 45.75 45.2187 45.2344 48.5Z" fill="#2F87DB"/>
<path d="M80.25 61.9062H70.7812L75 35.0469H84.4688L80.25 61.9062Z" fill="#2F87DB"/>
<path d="M86.6719 24.7344C86.2031 27.6875 83.4375 30.0781 80.5312 30.0781C77.625 30.0781 75.6094 27.6875 76.0781 24.7344C76.5469 21.7813 79.3125 19.3906 82.2187 19.3906C85.125 19.3906 87.1406 21.8281 86.6719 24.7344Z" fill="#2F87DB"/>
<path d="M123.938 35.0469H111L99.6563 44.75L103.828 18.4531H103.781L106.594 0.6875H97.125L87.5156 61.9062H96.9844L98.6719 50.9844L107.297 61.9062H120.563L108.656 47.4687L123.938 35.0469Z" fill="#2F87DB"/>
<path d="M152.625 50.0938H132.703C132.094 53.9844 133.781 56.0469 137.672 56.0469C139.688 56.0469 141.281 55.3438 142.594 53.6094H151.688C149.203 59.9375 142.734 62.7969 136.688 62.7969C127.875 62.7969 122.063 57.7813 123.516 48.5C124.922 39.5469 131.859 34.1562 140.531 34.1562C149.766 34.1562 154.219 39.9219 152.766 49.0625L152.625 50.0938ZM144.703 44.6094C144.656 42.0312 142.547 40.3906 140.016 40.3906C137.25 40.3906 134.766 41.8437 133.734 44.6094H144.703Z" fill="#2F87DB"/>
</svg>
